<?xml version="1.0" encoding="UTF-8" standalone="no"?>
<svg
   width="256"
   height="256"
   viewBox="0 0 67.733 67.733"
   version="1.1"
   id="svg2"
   xmlns="http://www.w3.org/2000/svg"
   xmlns:svg="http://www.w3.org/2000/svg">
  <defs
     id="defs2" />
  <path
     d="m 14.8162,4.23342 a 7.6032,6.9571814 0 0 0 -7.6194001,6.972005 v 45.32215 A 7.6032,6.9571814 0 0 0 14.8162,63.49958 7.6032,6.9571814 0 0 0 22.4374,56.527575 V 39.096739 h 22.86 v 17.430836 a 7.6032,6.9571814 0 0 0 7.6194,6.972005 7.6032,6.9571814 0 0 0 7.6194,-6.972005 V 11.205425 A 7.6032,6.9571814 0 0 0 52.9168,4.23342 7.6032,6.9571814 0 0 0 45.2974,11.205425 v 17.432483 h -22.86 V 11.205425 A 7.6032,6.9571814 0 0 0 14.8162,4.23342"
     style="fill:#50c878;fill-opacity:1;stroke-width:0.455568"
     id="path2" />
</svg>
